<svg xmlns="http://www.w3.org/2000/svg" viewBox="0 -10 400 400">
<rect y="-10" rx="20" ry="20" width="400" height="400" fill="#000000" />
    <path fill="#888888" d="M142.896 124.472c-62.772 0-65.684 41.559-65.258 56.392.821 28.448 16.057 57.896 53.227 30.624 28.064-20.563 43.24-36.209 43.24-52.467-.006-26.289-5.394-34.549-31.209-34.549z"/>
    <path fill="#888888" d="M189.665 0C86.413 0 8.565 83.906 8.565 195.138c0 63.021 35.057 99.312 96.295 99.774v28.1c0 54.733 37.782 56.312 42.103 56.312 5.825 0 11.47-1.312 16.645-3.646a36.663 36.663 0 0012.336 2.128c4.158 0 8.922-.65 13.854-2.648a36.746 36.746 0 0013.646 2.648c4.504 0 8.736-.822 12.655-2.234 5.118 2.27 10.739 3.552 16.532 3.552 4.279 0 41.83-1.566 41.83-56.11V294.82c61.218-.627 96.298-36.877 96.298-99.679C370.764 83.9 292.92 0 189.665 0zm83.165 266.581c-8.364 0-17.283-.779-26.628-2.222v58.646c0 21.001-6.715 27.863-13.571 27.863-7.164 0-14.476-7.466-14.476-14.073 0 0-6.266 12.731-14.712 12.731-4.227 0-8.99-3.192-13.778-12.731-4.793 9.563-9.522 12.731-13.745 12.731-8.391 0-14.611-12.731-14.611-12.731 0 6.909-7.22 14.262-14.381 14.262-6.937-.012-13.799-6.969-13.799-28.058V264.21c-9.558 1.585-18.637 2.412-27.137 2.412-41.49 0-69.156-19.802-69.156-71.497 0-92.231 60.63-166.866 152.829-166.866 92.226 0 152.829 74.641 152.829 166.866 0 52.122-27.982 71.456-69.664 71.456z"/>
    <path fill="#888888" d="M236.424 124.472c-25.806 0-31.196 8.255-31.196 34.549 0 16.257 15.173 31.903 43.243 52.467 37.167 27.272 52.404-2.176 53.227-30.624.419-14.828-2.489-56.392-65.274-56.392zM207.788 239.563c-14.996 0-18.111 15.037-18.111 15.037s-6.514-14.464-16.686-14.464c-22.748 0-5.672 21.646 3.865 48.923 3.088 8.843 12.809 5.527 12.809-3.972 0 9.937 9.28 14.582 13.908 1.549 9.859-27.692 23.418-47.037 4.215-47.073z"/>
</svg>
